<svg xmlns="http://www.w3.org/2000/svg" width="48" height="48" viewBox="0 0 48 48" role="img" aria-label="Solution Team logo">
  <rect x="3" y="3" width="42" height="42" rx="11" fill="#173372" stroke="#f5b400" stroke-width="2.5"/>
  <path d="M33 16.5c-2.2-2.2-5.5-3-8.8-2.2-3.6.9-6 3.7-6 7 0 3.1 2.2 5 6.2 6.1 3.1.9 3.9 1.5 3.9 2.7 0 1.3-1.4 2.2-3.4 2.2-2.1 0-4-.9-5.6-2.4l-3 4c2.2 2.1 5.3 3.3 8.5 3.3 4.6 0 7.9-2.6 7.9-6.6 0-3.5-2.4-5.3-6.6-6.4-2.8-.7-3.6-1.3-3.6-2.4 0-1.1 1.1-1.9 2.9-1.9 1.8 0 3.6.8 5.1 2.1z" fill="#f5b400"/>
</svg>
